# xmcd
#
# Track frame offsets: 
#        300
#        16406
#        29811
#        48662
#        61779
#        80042
#        98438
#        114439
#        125465
#        141014
#        160227
#        176701
#
# Disc length: 2586 seconds
#
# Revision: 4
# Processed by: cddbd v1.5.2PL0 Copyright (c) Steve Scherf et al.
# Submitted via: ExactAudioCopy v1.0b1
#
DISCID=a00a160c
DTITLE=The Robert Cray Band - Bad Influence
DYEAR=1986
DGENRE=Blues
TTITLE0=Phone Booth
TTITLE1=Bad Influence
TTITLE2=The Grinder
TTITLE3=Got To Make A Comeback
TTITLE4=So Many Women, So Little Time
TTITLE5=Where Do I Go From Here
TTITLE6=Waiting For The Tide To Turn
TTITLE7=March On
TTITLE8=Don't Touch Me
TTITLE9=No Big Deal
TTITLE10=I Got Loaded
TTITLE11=Share What You've Got, Keep What You Need
EXTD=YEAR: 1983 ID3G:   0
EXTT0=
EXTT1=
EXTT2=
EXTT3=
EXTT4=
EXTT5=
EXTT6=
EXTT7=
EXTT8=
EXTT9=
EXTT10=
EXTT11=
PLAYORDER=
